<svg width="37" height="30" viewBox="0 0 37 30" fill="none" xmlns="http://www.w3.org/2000/svg">
<path fill-rule="evenodd" clip-rule="evenodd" d="M34.8001 27.706C34.1201 28.734 33.6051 30 32.2231 30C29.8971 30 29.7711 26.413 27.4431 26.413C25.1161 26.413 25.2421 30 22.9161 30C20.5901 30 20.4641 26.413 18.1361 26.413C15.8091 26.413 15.9351 30 13.6081 30C11.2821 30 11.1561 26.413 8.82808 26.413C6.50008 26.413 6.62808 30 4.30008 30C3.56908 30 3.05508 29.646 2.62208 29.16C0.894488 26.14 -0.00967084 22.7192 7.80086e-05 19.24C7.80086e-05 8.613 8.20808 0 18.3331 0C28.4601 0 36.6671 8.614 36.6671 19.24C36.6671 22.277 35.9951 25.15 34.8001 27.706Z" fill="#FB70A9"/>
<path fill-rule="evenodd" clip-rule="evenodd" d="M34.8001 27.706C34.1201 28.734 33.6051 30 32.2231 30C29.8971 30 29.7711 26.413 27.4431 26.413C25.1161 26.413 25.2421 30 22.9161 30C20.5901 30 20.4641 26.413 18.1361 26.413C15.8091 26.413 15.9351 30 13.6081 30C11.2821 30 11.1561 26.413 8.82808 26.413C6.50008 26.413 6.62808 30 4.30008 30C3.56908 30 3.05508 29.646 2.62208 29.16C0.894488 26.14 -0.00967084 22.7192 7.80086e-05 19.24C7.80086e-05 8.613 8.20808 0 18.3331 0C28.4601 0 36.6671 8.614 36.6671 19.24C36.6671 22.277 35.9951 25.15 34.8001 27.706Z" fill="#FB70A9"/>
<path fill-rule="evenodd" clip-rule="evenodd" d="M30.834 29.617C35.638 22.47 35.763 14.542 31.206 5.83301C34.7165 9.42759 36.6772 14.2556 36.667 19.28C36.667 22.306 35.972 25.17 34.733 27.714C34.028 28.738 33.493 30 32.06 30C31.57 30 31.174 29.852 30.834 29.617Z" fill="#E24CA6"/>
<path fill-rule="evenodd" clip-rule="evenodd" d="M17.35 24.038C23.726 24.038 26.41 20.34 26.41 15.088C26.41 9.834 22.355 5 17.35 5C12.347 5 8.29102 9.835 8.29102 15.087C8.29102 20.34 10.974 24.038 17.35 24.038Z" fill="white"/>
<path d="M14.9146 15.3848C16.7906 15.3848 18.3116 13.7048 18.3116 11.6348C18.3116 9.56377 16.7916 7.88477 14.9146 7.88477C13.0386 7.88477 11.5176 9.56377 11.5176 11.6348C11.5176 13.7048 13.0376 15.3848 14.9146 15.3848Z" fill="#030776"/>
<path d="M14.3504 12.5001C15.2874 12.5001 16.0484 11.7251 16.0484 10.7701C16.0484 9.81306 15.2884 9.03906 14.3494 9.03906C13.4114 9.03906 12.6504 9.81306 12.6504 10.7691C12.6504 11.7251 13.4104 12.5001 14.3504 12.5001Z" fill="white"/>
</svg>
