<svg width="40" height="57" viewBox="0 0 40 57" fill="none" xmlns="http://www.w3.org/2000/svg">
<path d="M21.9784 4.13304C19.472 1.55442 16.1705 0.265106 12.869 0.265106C9.56743 0.265106 6.2659 1.55442 3.75954 4.13304C1.25318 6.71166 0 10.1084 0 13.5051C0 16.9018 1.25318 20.292 3.75954 22.8771L8.91858 28.1784L3.75954 33.4861C1.25318 36.0647 0 39.4615 0 42.8582C0 46.2483 1.25318 49.645 3.75954 52.2237C6.2659 54.8088 9.56743 56.0981 12.869 56.0981C16.1705 56.0981 19.472 54.8088 21.9784 52.2237L36.2405 37.5504C38.7468 34.9718 40 31.5751 40 28.1784C40 24.7882 38.7468 21.3915 36.2405 18.8129L21.9784 4.13304ZM23.1807 13.5051L12.869 24.1141L7.70992 18.8129C6.29771 17.3534 5.58524 15.4292 5.58524 13.5051C5.58524 11.5809 6.29771 9.65679 7.70992 8.19731C9.1285 6.73784 10.9987 6.01137 12.869 6.01137C14.7392 6.01137 16.6094 6.73784 18.028 8.19731L23.1807 13.5051ZM27.131 38.7939L16.8193 28.1784L27.131 17.5694L32.2901 22.8771C33.7087 24.3301 34.4148 26.2542 34.4148 28.1784C34.4148 30.1025 33.7087 32.0267 32.2901 33.4861L27.131 38.7939ZM23.1807 42.8582L18.028 48.1594C16.6094 49.6189 14.7392 50.3453 12.869 50.3453C10.9987 50.3453 9.1285 49.6189 7.70992 48.1594C6.29771 46.7065 5.58524 44.7823 5.58524 42.8582C5.58524 40.934 6.29771 39.0099 7.70992 37.5504L12.869 32.2426L23.1807 42.8582Z" fill="black"/>
</svg>
