<?xml version="1.0" encoding="UTF-8"?>
<!DOCTYPE svg PUBLIC "-//W3C//DTD SVG 1.1//EN" "http://www.w3.org/Graphics/SVG/1.1/DTD/svg11.dtd">
<!-- Creator: CorelDRAW 2019 (64-Bit) -->
<svg xmlns="http://www.w3.org/2000/svg" xml:space="preserve" width="457px" height="107px" version="1.1" style="shape-rendering:geometricPrecision; text-rendering:geometricPrecision; image-rendering:optimizeQuality; fill-rule:evenodd; clip-rule:evenodd"
viewBox="0 0 3639500 853100"
 xmlns:xlink="http://www.w3.org/1999/xlink">
 <defs>
  <style type="text/css">
   <![CDATA[
    .fil0 {fill:#373b54;fill-rule:nonzero}
   ]]>
  </style>
 </defs>
 <g id="Capa_x0020_1">
  <metadata id="CorelCorpID_0Corel-Layer"/>
  <path class="fil0" d="M3356200 59100c-39400,-39400 -91300,-59100 -143200,-59100 -51900,0 -103800,19700 -143200,59100 -39400,39400 -59100,91300 -59100,143200 0,51900 19700,103700 59100,143200l81100 81000 -81100 81100c-39400,39400 -59100,91300 -59100,143200 0,51800 19700,103700 59100,143100 39400,39500 91300,59200 143200,59200 51900,0 103800,-19700 143200,-59200l224200 -224200c39400,-39400 59100,-91300 59100,-143200 0,-51800 -19700,-103700 -59100,-143100l-224200 -224300zm18900 143200l-162100 162100 -81100 -81000c-22200,-22300 -33400,-51700 -33400,-81100 0,-29400 11200,-58800 33400,-81100 22300,-22300 51700,-33400 81100,-33400 29400,0 58800,11100 81100,33400l81000 81100zm62100 386400l-162100 -162200 162100 -162100 81100 81100c22300,22200 33400,51600 33400,81000 0,29400 -11100,58800 -33400,81100l-81100 81100zm-62100 62100l-81000 81000c-22300,22300 -51700,33400 -81100,33400 -29400,0 -58800,-11100 -81100,-33400 -22200,-22200 -33400,-51600 -33400,-81000 0,-29400 11200,-58800 33400,-81100l81100 -81100 162100 162200z"/>
  <path class="fil0" d="M2509200 259000l0 427800 118400 0 0 -427800 -118400 0zm-871300 399200c16700,4500 34500,6700 53400,6700 13800,0 27000,-1300 39400,-4000 12400,-2600 24200,-6600 35300,-11900 6000,-2800 11600,-5900 16700,-9200 5300,-3400 10300,-7000 14900,-10900l12900 -10800 0 29800c0,15900 -2600,30100 -7700,42600 -5200,12700 -13100,23600 -23500,32600 -10300,8900 -22600,15500 -36600,20000 -13900,4300 -29600,6500 -47000,6500 -14200,0 -28600,-1300 -42000,-3900 -12800,-2400 -24700,-6100 -34600,-11000 -8400,-4100 -16500,-9100 -24300,-14900 -5800,-4400 -11400,-9200 -16800,-14500l-78500 64900c19200,25300 44600,45100 76300,59500 17000,7700 35800,13500 56000,17400 20600,4000 42600,6000 65700,6000 44300,0 83800,-8800 118300,-26400 17200,-8700 32600,-19100 46100,-31200 13500,-12100 25100,-25900 35000,-41400 9700,-15300 17100,-32100 22000,-50400 4900,-18300 7400,-38100 7400,-59300l0 -385400 -115800 0 0 45900 -12900 -10800c-4600,-3800 -9500,-7400 -14600,-10600 -5300,-3300 -10800,-6400 -16500,-9100 -11000,-5100 -22700,-9000 -35200,-11500 -12500,-2600 -25800,-3900 -40000,-3900 -18900,0 -36700,2200 -53400,6600 -16700,4400 -32300,11100 -46800,19800 -14600,8900 -27600,19300 -39200,31400 -11500,12100 -21400,25800 -29900,41100 -8400,15400 -14800,31600 -19000,48800 -4200,17200 -6300,35500 -6300,54800 0,19000 2100,37100 6300,54200 4300,17200 10600,33600 19000,49000 8400,15500 18400,29300 30000,41600 11400,12100 24500,22700 39100,31700 14600,9000 30200,15700 46800,20200zm147300 -122900c-18800,18800 -44900,30500 -73700,30500 -28800,0 -54900,-11700 -73700,-30500 -18900,-18900 -30600,-45000 -30600,-73800 0,-28800 11700,-54900 30600,-73700 18800,-18900 44900,-30600 73700,-30600 28800,0 54900,11700 73700,30600 18900,18800 30600,44900 30600,73700 0,28800 -11700,54900 -30600,73800zm783200 -319800c16300,0 31100,-6600 41800,-17300 10800,-10700 17400,-25500 17400,-41800 0,-16400 -6600,-31200 -17400,-41900 -10700,-10700 -25500,-17300 -41800,-17300 -16400,0 -31200,6600 -41900,17300 -10700,10700 -17300,25500 -17300,41900 0,16300 6600,31100 17300,41800 10700,10700 25500,17300 41900,17300zm-1933600 464300c19100,4700 39400,7000 60700,7000 21600,0 42100,-2300 61200,-7000 19300,-4700 37300,-11800 54200,-21200 16900,-9400 32100,-20600 45500,-33400 13400,-12900 25100,-27400 34900,-43700 9800,-16200 17200,-33400 22100,-51700 5000,-18200 7400,-37500 7400,-57800 0,-20200 -2400,-39400 -7400,-57600 -4900,-18200 -12300,-35300 -22100,-51300 -9900,-16200 -21500,-30600 -34900,-43300 -13400,-12700 -28500,-23700 -45400,-33000 -17000,-9300 -35100,-16200 -54200,-20800 -19200,-4700 -39600,-7000 -61300,-7000 -21600,0 -42000,2400 -61200,7100 -19200,4700 -37300,11700 -54200,21100 -16900,9500 -32100,20500 -45500,33200 -13400,12800 -25100,27100 -34900,43100 -9900,16000 -17200,33000 -22100,51000 -5000,18000 -7400,37200 -7400,57500 0,20300 2500,39600 7400,57800 4900,18300 12300,35500 22100,51700 9900,16200 21500,30800 35000,43700 13400,12800 28700,23900 45800,33400 17100,9400 35200,16500 54300,21200zm134500 -133100c-18900,18800 -45000,30500 -73800,30500 -28800,0 -54900,-11700 -73700,-30500 -18900,-18900 -30600,-45000 -30600,-73800 0,-28800 11700,-54900 30600,-73700 18800,-18900 44900,-30600 73700,-30600 28800,0 54900,11700 73800,30600 18800,18800 30500,44900 30500,73700 0,28800 -11700,54900 -30500,73800zm-657400 135000c16400,3400 34200,5100 53300,5100 22800,0 44000,-2200 63500,-6800 19400,-4500 37300,-11200 53700,-20200 16200,-9000 30700,-19800 43300,-32500 12700,-12600 23500,-27100 32400,-43300 9000,-16300 15800,-34200 20300,-53500 4500,-19400 6800,-40300 6800,-62800l0 -370500 -122800 0 0 378300c0,10800 -1000,20700 -3000,29900 -2100,9300 -5200,17700 -9300,25200 -4200,7500 -9100,14100 -14700,19900 -5600,5800 -12000,10700 -19000,14700 -14100,8000 -30600,12000 -49500,12000 -9600,0 -18800,-1000 -27500,-3100 -8800,-2000 -17000,-5100 -24800,-9200 -6300,-3400 -12300,-7400 -18000,-12000 -3600,-3000 -7200,-6300 -10500,-9800l-86100 71100c8600,10100 17800,19100 27800,27200 11800,9600 24800,17900 38700,24800 13900,6900 29000,12000 45400,15500zm1186700 -30300l0 35400 115800 0 0 -427800 -115800 0 0 54300 -13300 -12600c-5400,-5100 -11300,-9900 -17600,-14200 -6400,-4300 -13100,-8200 -20200,-11600 -22000,-10600 -46800,-15900 -74200,-15900 -19000,0 -36800,2300 -53500,6900 -16700,4600 -32400,11600 -47100,20800 -14800,9300 -28000,20200 -39600,32900 -11700,12700 -21900,27000 -30400,43000 -17200,32200 -25800,68900 -25800,110300 0,20800 2100,40300 6400,58700 4400,18400 10800,35600 19400,51600 8500,16000 18700,30400 30400,43100 11600,12600 24800,23600 39600,32800 29400,18500 62900,27700 100600,27700 13800,0 26900,-1300 39300,-3900 12400,-2700 24200,-6700 35300,-12000 7100,-3300 13800,-7100 20100,-11400 6300,-4200 12100,-8800 17400,-13800l13200 -12500 0 18200zm-23500 -104700c-18900,18800 -45000,30500 -73800,30500 -28800,0 -54900,-11700 -73700,-30500 -18900,-18900 -30600,-45000 -30600,-73800 0,-28800 11700,-54900 30600,-73700 18800,-18900 44900,-30600 73700,-30600 28800,0 54900,11700 73800,30600 18800,18800 30500,44900 30500,73700 0,28800 -11700,54900 -30500,73800zm889500 134300c16700,3900 34600,5800 53600,5800 19000,0 36800,-1900 53400,-5800 16600,-3800 32000,-9600 46300,-17300 14300,-7700 27000,-16900 38200,-27500 11200,-10600 20800,-22700 28900,-36300 8100,-13500 14200,-28100 18200,-43800 4100,-15700 6100,-32600 6100,-50800l0 -246300 -118400 0 0 245500c0,11900 -1600,22600 -4800,32200 -3300,9700 -8200,18200 -14800,25300 -6700,7100 -14500,12500 -23500,16000 -8900,3600 -18700,5300 -29600,5300 -7600,0 -14700,-800 -21400,-2400 -6700,-1600 -12900,-4100 -18500,-7400 -5700,-3400 -10700,-7400 -14900,-12000 -4200,-4700 -7800,-10000 -10600,-16000 -2800,-5800 -4800,-12200 -6200,-19100 -1400,-6800 -2000,-14100 -2000,-21900l0 -245500 -118400 0 0 247200c0,17800 2000,34500 6100,50100 4000,15600 10100,30100 18200,43600 8100,13600 17700,25700 29000,36300 11200,10600 24100,19800 38500,27500 14400,7700 29900,13500 46600,17300z"/>
 </g>
</svg>
